# xmcd
#
# Track frame offsets: 
#        182
#        30932
#        48475
#        82062
#        105707
#        128957
#        152542
#        181907
#
# Disc length: 2737 seconds
#
# Revision: 1
# Processed by: cddbd v1.5.2PL0 Copyright (c) Steve Scherf et al.
# Submitted via: ExactAudioCopy v0.99pb5
#
DISCID=5c0aaf08
DTITLE=Orquesta Gitano - Como Suena Mi Rumba
DYEAR=1991
DGENRE=Salsa
TTITLE0=Como Suena Mi Rumba
TTITLE1=Senora
TTITLE2=Fantasia
TTITLE3=La Gente Del Barrio
TTITLE4=Salsa Ahora
TTITLE5=Salute To Yemaya
TTITLE6=Sirena
TTITLE7=Piraguero
EXTD=YEAR: 1991
EXTT0=
EXTT1=
EXTT2=
EXTT3=
EXTT4=
EXTT5=
EXTT6=
EXTT7=
PLAYORDER=
